<svg width="1200" height="675" viewBox="0 0 1200 675" fill="none" xmlns="http://www.w3.org/2000/svg">
  <defs>
    <radialGradient id="space" cx="0" cy="0" r="1" gradientTransform="translate(600 330) rotate(90) scale(460 720)">
      <stop stop-color="#303030"/>
      <stop offset="1" stop-color="#080808"/>
    </radialGradient>
    <radialGradient id="sun" cx="0" cy="0" r="1" gradientTransform="translate(600 338) rotate(90) scale(46)">
      <stop stop-color="#FFF4B0"/>
      <stop offset="0.5" stop-color="#F5B942"/>
      <stop offset="1" stop-color="#B86A13"/>
    </radialGradient>
  </defs>
  <rect width="1200" height="675" fill="url(#space)"/>
  <g stroke="#8A8A8A" stroke-opacity="0.28">
    <ellipse cx="600" cy="338" rx="110" ry="42"/>
    <ellipse cx="600" cy="338" rx="180" ry="68"/>
    <ellipse cx="600" cy="338" rx="260" ry="98"/>
    <ellipse cx="600" cy="338" rx="350" ry="132"/>
    <ellipse cx="600" cy="338" rx="455" ry="172"/>
  </g>
  <circle cx="600" cy="338" r="46" fill="url(#sun)"/>
  <circle cx="710" cy="338" r="8" fill="#B7B7B7"/>
  <circle cx="780" cy="338" r="12" fill="#A8C7E8"/>
  <circle cx="860" cy="338" r="15" fill="#C87952"/>
  <circle cx="950" cy="338" r="24" fill="#D6B48A"/>
  <circle cx="1040" cy="338" r="21" fill="#D9C7A8"/>
  <circle cx="175" cy="102" r="2" fill="white" fill-opacity="0.7"/>
  <circle cx="270" cy="520" r="2" fill="white" fill-opacity="0.55"/>
  <circle cx="390" cy="120" r="2" fill="white" fill-opacity="0.65"/>
  <circle cx="820" cy="118" r="2" fill="white" fill-opacity="0.6"/>
  <circle cx="1080" cy="530" r="2" fill="white" fill-opacity="0.7"/>
  <circle cx="1030" cy="150" r="2" fill="white" fill-opacity="0.5"/>
  <text x="600" y="610" fill="white" fill-opacity="0.82" text-anchor="middle" font-family="Arial, sans-serif" font-size="24" letter-spacing="3">3D MODEL PLACEHOLDER</text>
</svg>
